<mxfile host="app.diagrams.net" agent="Mozilla/5.0 (Macintosh; Intel Mac OS X 10_15_7) AppleWebKit/537.36 (KHTML, like Gecko) Chrome/133.0.0.0 Safari/537.36" version="25.0.1">
  <diagram name="Page-1" id="lMxQ10vMmRRKRroEmpuF">
    <mxGraphModel dx="1357" dy="651" grid="1" gridSize="10" guides="1" tooltips="1" connect="1" arrows="1" fold="1" page="1" pageScale="1" pageWidth="850" pageHeight="1100" math="0" shadow="0">
      <root>
        <mxCell id="0" />
        <mxCell id="1" parent="0" />
        <mxCell id="v6-LjWpwHTIjb34Buj7H-1" value="" style="rounded=0;whiteSpace=wrap;html=1;" vertex="1" parent="1">
          <mxGeometry x="280" y="270" width="220" height="140" as="geometry" />
        </mxCell>
        <mxCell id="v6-LjWpwHTIjb34Buj7H-10" value="" style="edgeStyle=orthogonalEdgeStyle;rounded=0;orthogonalLoop=1;jettySize=auto;html=1;entryX=0.5;entryY=0;entryDx=0;entryDy=0;" edge="1" parent="1" source="v6-LjWpwHTIjb34Buj7H-2" target="v6-LjWpwHTIjb34Buj7H-1">
          <mxGeometry relative="1" as="geometry">
            <mxPoint x="390" y="240" as="targetPoint" />
          </mxGeometry>
        </mxCell>
        <mxCell id="v6-LjWpwHTIjb34Buj7H-13" value="create resource" style="edgeLabel;html=1;align=center;verticalAlign=middle;resizable=0;points=[];" vertex="1" connectable="0" parent="v6-LjWpwHTIjb34Buj7H-10">
          <mxGeometry x="0.2633" y="-3" relative="1" as="geometry">
            <mxPoint x="3" y="-4" as="offset" />
          </mxGeometry>
        </mxCell>
        <mxCell id="v6-LjWpwHTIjb34Buj7H-2" value="k8s control plane" style="rounded=0;whiteSpace=wrap;html=1;" vertex="1" parent="1">
          <mxGeometry x="280" y="110" width="220" height="90" as="geometry" />
        </mxCell>
        <mxCell id="v6-LjWpwHTIjb34Buj7H-4" value="" style="edgeStyle=orthogonalEdgeStyle;rounded=0;orthogonalLoop=1;jettySize=auto;html=1;entryX=0;entryY=0.5;entryDx=0;entryDy=0;" edge="1" parent="1" source="v6-LjWpwHTIjb34Buj7H-3" target="v6-LjWpwHTIjb34Buj7H-2">
          <mxGeometry relative="1" as="geometry" />
        </mxCell>
        <mxCell id="v6-LjWpwHTIjb34Buj7H-11" value="declare resource" style="edgeLabel;html=1;align=center;verticalAlign=middle;resizable=0;points=[];" vertex="1" connectable="0" parent="v6-LjWpwHTIjb34Buj7H-4">
          <mxGeometry x="0.0836" y="1" relative="1" as="geometry">
            <mxPoint as="offset" />
          </mxGeometry>
        </mxCell>
        <mxCell id="v6-LjWpwHTIjb34Buj7H-3" value="&amp;nbsp; &amp;nbsp; kubectl create&lt;div&gt;&lt;br&gt;&lt;/div&gt;&lt;div&gt;&amp;nbsp; &amp;nbsp; kubectl get&lt;/div&gt;&lt;div&gt;&lt;br&gt;&lt;/div&gt;&lt;div&gt;&amp;nbsp; &amp;nbsp; kubectl delete&lt;br&gt;&lt;div&gt;&lt;br&gt;&lt;/div&gt;&lt;/div&gt;" style="rounded=0;whiteSpace=wrap;html=1;align=left;" vertex="1" parent="1">
          <mxGeometry x="30" y="250" width="140" height="160" as="geometry" />
        </mxCell>
        <mxCell id="v6-LjWpwHTIjb34Buj7H-6" value="Pod" style="rounded=1;whiteSpace=wrap;html=1;" vertex="1" parent="1">
          <mxGeometry x="290" y="330" width="55" height="60" as="geometry" />
        </mxCell>
        <mxCell id="v6-LjWpwHTIjb34Buj7H-7" value="Pod" style="rounded=1;whiteSpace=wrap;html=1;" vertex="1" parent="1">
          <mxGeometry x="362.5" y="330" width="55" height="60" as="geometry" />
        </mxCell>
        <mxCell id="v6-LjWpwHTIjb34Buj7H-8" value="Pod" style="rounded=1;whiteSpace=wrap;html=1;" vertex="1" parent="1">
          <mxGeometry x="430" y="330" width="55" height="60" as="geometry" />
        </mxCell>
        <mxCell id="v6-LjWpwHTIjb34Buj7H-14" value="Text" style="text;html=1;align=center;verticalAlign=middle;whiteSpace=wrap;rounded=0;" vertex="1" parent="1">
          <mxGeometry x="390" y="230" width="60" height="30" as="geometry" />
        </mxCell>
        <mxCell id="v6-LjWpwHTIjb34Buj7H-15" value="k8s client" style="text;html=1;align=center;verticalAlign=middle;whiteSpace=wrap;rounded=0;" vertex="1" parent="1">
          <mxGeometry x="70" y="210" width="60" height="30" as="geometry" />
        </mxCell>
        <mxCell id="v6-LjWpwHTIjb34Buj7H-16" value="k8s worker node" style="text;html=1;align=center;verticalAlign=middle;whiteSpace=wrap;rounded=0;" vertex="1" parent="1">
          <mxGeometry x="336.25" y="290" width="107.5" height="30" as="geometry" />
        </mxCell>
      </root>
    </mxGraphModel>
  </diagram>
</mxfile>
